<svg width="218" height="217" viewBox="0 0 218 217" fill="none" xmlns="http://www.w3.org/2000/svg">
<path d="M89.4401 105.67L79.8401 95.72H79.8601L89.4401 105.67Z" fill="#0AD3EF"/>
<path d="M81.6901 86.63L89.43 94.63L106.51 112.35C107.001 112.856 107.673 113.147 108.378 113.158C109.083 113.17 109.763 112.9 110.27 112.41L180.18 45.07C178.27 19.86 172.94 2.45996 172.94 2.45996H15.3801C15.3801 2.45996 -6.95994 75.46 23.5201 138.94L77.93 86.57C78.4367 86.0795 79.1174 85.8104 79.8225 85.8216C80.5275 85.8329 81.1993 86.1236 81.6901 86.63V86.63Z" fill="#2A80B9" stroke="#162241" stroke-width="3" stroke-miterlimit="10"/>
<path d="M118.97 132.29L110.97 140.03C110.461 140.517 109.78 140.782 109.076 140.769C108.371 140.756 107.701 140.465 107.21 139.96L82.3301 114.17C81.8407 113.662 81.1697 113.37 80.4646 113.357C79.7595 113.344 79.0781 113.611 78.5701 114.1L31.3701 159.57C44.5601 181.11 64.7601 200.83 95.1601 215.25C166.26 181.54 181.61 118.82 181.84 71.64L118.93 132.25L118.97 132.29Z" fill="#2A80B9" stroke="#162241" stroke-width="3" stroke-miterlimit="10"/>
<path d="M217.64 32.26L208.64 63.4C208.511 63.8484 208.266 64.2549 207.93 64.5787C207.594 64.9024 207.178 65.1321 206.725 65.2445C206.272 65.357 205.798 65.3483 205.349 65.2194C204.901 65.0905 204.494 64.8458 204.17 64.51L199.87 60.04C199.379 59.5317 198.706 59.2389 197.999 59.2258C197.293 59.2126 196.61 59.4803 196.1 59.97L180.87 74.64L117.93 135.25L109.93 142.99C109.418 143.475 108.736 143.739 108.031 143.726C107.326 143.713 106.654 143.424 106.16 142.92L81.33 117.17C80.8389 116.662 80.1662 116.369 79.4595 116.356C78.7528 116.343 78.0697 116.61 77.56 117.1L30.36 162.57L11.36 180.84C10.8503 181.33 10.1673 181.597 9.46056 181.584C8.75385 181.571 8.08118 181.278 7.59003 180.77L1.70003 174.66C1.21031 174.15 0.942661 173.467 0.955783 172.761C0.968905 172.054 1.26171 171.381 1.77002 170.89L23.47 149.98L77.88 97.57C78.3896 97.0814 79.0715 96.8137 79.7774 96.8249C80.4833 96.8362 81.1562 97.1255 81.65 97.63L89.39 105.63L106.46 123.35C106.954 123.855 107.627 124.144 108.333 124.155C109.039 124.166 109.72 123.899 110.23 123.41L180.13 56.11L186.44 50.03C186.947 49.5389 187.24 48.8674 187.255 48.1615C187.27 47.4555 187.006 46.7722 186.52 46.26L181.67 41.26C181.348 40.924 181.12 40.5093 181.008 40.0574C180.896 39.6054 180.905 39.1321 181.034 38.6847C181.162 38.2373 181.406 37.8315 181.74 37.5078C182.075 37.1841 182.489 36.9538 182.94 36.84L214.4 28.97C214.853 28.8504 215.33 28.8527 215.782 28.9766C216.234 29.1005 216.645 29.3416 216.974 29.6755C217.303 30.0094 217.538 30.4243 217.655 30.8782C217.772 31.332 217.767 31.8087 217.64 32.26Z" fill="#162241"/>
<path d="M93.96 1.5L94.32 98.92" stroke="#162241" stroke-width="5" stroke-miterlimit="10"/>
<path d="M43.7801 59.26V38.58H35.5801V31.26H61.4201V38.58H53.2201V59.26H43.7801Z" fill="white"/>
<path d="M95.1301 99.73H95.3101V99.01H95.1301V99.73Z" fill="#0AD3EF" stroke="#162241" stroke-width="3" stroke-miterlimit="10"/>
<path d="M95.5199 188.76C91.2333 188.76 87.8999 187.6 85.5199 185.28C83.1399 182.96 81.9399 179.707 81.9199 175.52V160.17H91.3599V175.29C91.3599 177.42 91.7499 178.94 92.5199 179.83C92.9099 180.269 93.3915 180.616 93.9307 180.848C94.4699 181.079 95.0534 181.189 95.6399 181.17C96.2307 181.199 96.8203 181.094 97.3643 180.862C97.9083 180.63 98.3924 180.277 98.7799 179.83C99.5399 178.94 99.9199 177.42 99.9199 175.29V160.17H109.13V175.57C109.13 179.757 107.93 183.01 105.53 185.33C103.13 187.65 99.7933 188.793 95.5199 188.76Z" fill="white"/>
<path d="M117.06 59.26L129.3 31.26H138.58L150.82 59.26H141.06L132.06 35.74H135.74L126.74 59.26H117.06ZM124.34 54.38L126.74 47.58H139.62L142.02 54.38H124.34Z" fill="white"/>
</svg>
